<svg width="68" height="14" viewBox="0 0 68 14" fill="none" xmlns="http://www.w3.org/2000/svg"><path d="m1.216 8.646 2.35 2.35.005.005.005.005a4.155 4.155 0 0 0 5.287.488 4.155 4.155 0 0 0 5.287-.488l2.35-2.35a4.154 4.154 0 0 0-5.288-6.363 4.155 4.155 0 0 0-4.697-.001 4.154 4.154 0 0 0-5.299 6.354ZM12.488 3.47a2.492 2.492 0 0 1 2.837 4.01l-2.35 2.35a2.495 2.495 0 0 1-2.837.488L11.8 8.656a4.122 4.122 0 0 0 1.216-2.937 4.127 4.127 0 0 0-.628-2.198c.033-.018.066-.035.1-.051ZM7.1 3.956a2.492 2.492 0 0 1 3.525 3.525L8.863 9.243 7.1 7.481a2.495 2.495 0 0 1 0-3.524Zm-4.709-.01a2.496 2.496 0 0 1 2.948-.429 4.126 4.126 0 0 0-.589 2.79c.125.89.538 1.715 1.175 2.349l1.652 1.652.01.01A2.497 2.497 0 0 1 4.75 9.83l-.004-.005-.005-.005-2.339-2.338-.01-.012a2.493 2.493 0 0 1 0-3.524Z" fill="#0077C0"/><path d="M23.485 10.389h1.536l1.386-5.037h.03l1.381 5.037h1.537l1.994-7.516h-1.63L28.526 8.26h-.03L27.11 2.873h-1.38L24.344 8.26h-.031l-1.188-5.386h-1.63l1.99 7.516Zm9.536.088c.735 0 1.328-.348 1.646-.921h.031v.833h1.521V6.56c0-1.125-.932-1.87-2.375-1.87-1.474 0-2.36.74-2.443 1.77l-.005.063h1.39l.011-.047c.073-.359.417-.625.985-.625.593 0 .916.308.916.803v.343l-1.38.084c-1.385.088-2.172.682-2.172 1.698v.01c0 .984.755 1.688 1.875 1.688Zm-.37-1.765v-.01c0-.396.308-.646.896-.683l1.151-.073v.401c0 .584-.5 1.021-1.182 1.021-.526 0-.865-.245-.865-.656Zm4.605 1.677h1.52V8.54l.391-.432 1.599 2.28h1.755l-2.213-3.181 2.11-2.401h-1.725L38.808 7.04h-.032V2.873h-1.52v7.516Zm7.317.088c.735 0 1.328-.348 1.646-.921h.031v.833h1.521V6.56c0-1.125-.932-1.87-2.375-1.87-1.474 0-2.36.74-2.443 1.77l-.005.063h1.39l.011-.047c.073-.359.417-.625.985-.625.593 0 .916.308.916.803v.343l-1.38.084c-1.385.088-2.172.682-2.172 1.698v.01c0 .984.755 1.688 1.875 1.688Zm-.37-1.765v-.01c0-.396.308-.646.896-.683l1.151-.073v.401c0 .584-.5 1.021-1.182 1.021-.526 0-.864-.245-.864-.656Zm4.553 1.677h1.52V7.18c0-.73.433-1.23 1.115-1.23.682 0 1.026.417 1.026 1.146v3.292h1.52V6.785c0-1.308-.697-2.094-1.926-2.094-.844 0-1.417.39-1.703 1.031h-.032v-.916h-1.52v5.583Zm8.213.115c.807 0 1.422-.407 1.719-1.068h.031v.953h1.521V2.873h-1.52v2.901h-.032c-.302-.677-.927-1.083-1.719-1.083-1.406 0-2.27 1.083-2.27 2.901v.005c0 1.813.864 2.907 2.27 2.907Zm.51-1.26c-.76 0-1.234-.631-1.234-1.647v-.005c0-1.02.48-1.64 1.235-1.64.734 0 1.244.635 1.244 1.64v.005c0 1.01-.505 1.646-1.244 1.646Zm5.438 1.233c.734 0 1.328-.348 1.646-.921h.031v.833h1.521V6.56c0-1.125-.932-1.87-2.375-1.87-1.474 0-2.36.74-2.443 1.77l-.005.063h1.39l.011-.047c.073-.359.417-.625.985-.625.593 0 .916.308.916.803v.343l-1.38.084c-1.386.088-2.172.682-2.172 1.698v.01c0 .984.755 1.688 1.875 1.688Zm-.37-1.765v-.01c0-.396.308-.646.896-.683l1.151-.073v.401c0 .584-.5 1.021-1.182 1.021-.526 0-.865-.245-.865-.656Z" fill="#000"/></svg>